<mxfile host="app.diagrams.net" agent="Mozilla/5.0 (Windows NT 10.0; Win64; x64) AppleWebKit/537.36 (KHTML, like Gecko) Chrome/129.0.0.0 Safari/537.36" version="24.7.17">
  <diagram name="Page-1" id="e2mYKja2g4gVo4-9nVoU">
    <mxGraphModel grid="1" page="1" gridSize="10" guides="1" tooltips="1" connect="1" arrows="1" fold="1" pageScale="1" pageWidth="850" pageHeight="1100" math="0" shadow="0">
      <root>
        <mxCell id="0" />
        <mxCell id="1" parent="0" />
        <mxCell id="wNxBrSoQJcaDCoT--Qf3-1" value="Mulai" style="rounded=1;whiteSpace=wrap;html=1;" vertex="1" parent="1">
          <mxGeometry x="180" y="160" width="80" height="30" as="geometry" />
        </mxCell>
        <mxCell id="wNxBrSoQJcaDCoT--Qf3-2" value="Mengisi Formulir" style="rounded=1;whiteSpace=wrap;html=1;" vertex="1" parent="1">
          <mxGeometry x="160" y="260" width="120" height="30" as="geometry" />
        </mxCell>
        <mxCell id="wNxBrSoQJcaDCoT--Qf3-3" value="Menunggu Verifikasi" style="rounded=1;whiteSpace=wrap;html=1;" vertex="1" parent="1">
          <mxGeometry x="160" y="360" width="120" height="30" as="geometry" />
        </mxCell>
        <mxCell id="wNxBrSoQJcaDCoT--Qf3-4" value="Pendaftaran Terverifikasi" style="rounded=1;whiteSpace=wrap;html=1;" vertex="1" parent="1">
          <mxGeometry x="150" y="460" width="140" height="30" as="geometry" />
        </mxCell>
        <mxCell id="wNxBrSoQJcaDCoT--Qf3-5" value="Pembayaran" style="rounded=1;whiteSpace=wrap;html=1;" vertex="1" parent="1">
          <mxGeometry x="160" y="560" width="120" height="30" as="geometry" />
        </mxCell>
        <mxCell id="wNxBrSoQJcaDCoT--Qf3-6" value="Pendaftaran Selesai" style="rounded=1;whiteSpace=wrap;html=1;" vertex="1" parent="1">
          <mxGeometry x="160" y="660" width="120" height="30" as="geometry" />
        </mxCell>
        <mxCell id="wNxBrSoQJcaDCoT--Qf3-7" value="" style="endArrow=classic;html=1;rounded=0;exitX=0.5;exitY=1;exitDx=0;exitDy=0;entryX=0.5;entryY=0;entryDx=0;entryDy=0;" edge="1" parent="1" source="wNxBrSoQJcaDCoT--Qf3-1" target="wNxBrSoQJcaDCoT--Qf3-2">
          <mxGeometry width="50" height="50" relative="1" as="geometry">
            <mxPoint x="220" y="230" as="sourcePoint" />
            <mxPoint x="270" y="180" as="targetPoint" />
          </mxGeometry>
        </mxCell>
        <mxCell id="wNxBrSoQJcaDCoT--Qf3-8" value="Mahasiswa memulai pendaftaran" style="edgeLabel;html=1;align=center;verticalAlign=middle;resizable=0;points=[];" connectable="0" vertex="1" parent="wNxBrSoQJcaDCoT--Qf3-7">
          <mxGeometry x="-0.1206" relative="1" as="geometry">
            <mxPoint as="offset" />
          </mxGeometry>
        </mxCell>
        <mxCell id="wNxBrSoQJcaDCoT--Qf3-9" value="" style="endArrow=classic;html=1;rounded=0;exitX=0.5;exitY=1;exitDx=0;exitDy=0;entryX=0.5;entryY=0;entryDx=0;entryDy=0;" edge="1" parent="1">
          <mxGeometry width="50" height="50" relative="1" as="geometry">
            <mxPoint x="219.67" y="290" as="sourcePoint" />
            <mxPoint x="219.67" y="360" as="targetPoint" />
          </mxGeometry>
        </mxCell>
        <mxCell id="wNxBrSoQJcaDCoT--Qf3-10" value="Submit Formulir" style="edgeLabel;html=1;align=center;verticalAlign=middle;resizable=0;points=[];" connectable="0" vertex="1" parent="wNxBrSoQJcaDCoT--Qf3-9">
          <mxGeometry x="-0.1206" relative="1" as="geometry">
            <mxPoint as="offset" />
          </mxGeometry>
        </mxCell>
        <mxCell id="wNxBrSoQJcaDCoT--Qf3-11" value="" style="endArrow=classic;html=1;rounded=0;exitX=0.5;exitY=1;exitDx=0;exitDy=0;entryX=0.5;entryY=0;entryDx=0;entryDy=0;" edge="1" parent="1">
          <mxGeometry width="50" height="50" relative="1" as="geometry">
            <mxPoint x="219.67" y="390" as="sourcePoint" />
            <mxPoint x="219.67" y="460" as="targetPoint" />
          </mxGeometry>
        </mxCell>
        <mxCell id="wNxBrSoQJcaDCoT--Qf3-12" value="Verifikasi oleh Staf" style="edgeLabel;html=1;align=center;verticalAlign=middle;resizable=0;points=[];" connectable="0" vertex="1" parent="wNxBrSoQJcaDCoT--Qf3-11">
          <mxGeometry x="-0.1206" relative="1" as="geometry">
            <mxPoint as="offset" />
          </mxGeometry>
        </mxCell>
        <mxCell id="wNxBrSoQJcaDCoT--Qf3-13" value="" style="endArrow=classic;html=1;rounded=0;exitX=0.5;exitY=1;exitDx=0;exitDy=0;entryX=0.5;entryY=0;entryDx=0;entryDy=0;" edge="1" parent="1">
          <mxGeometry width="50" height="50" relative="1" as="geometry">
            <mxPoint x="219.67" y="490" as="sourcePoint" />
            <mxPoint x="219.67" y="560" as="targetPoint" />
          </mxGeometry>
        </mxCell>
        <mxCell id="wNxBrSoQJcaDCoT--Qf3-14" value="Mahasiswa Melakukan Pembayaran" style="edgeLabel;html=1;align=center;verticalAlign=middle;resizable=0;points=[];" connectable="0" vertex="1" parent="wNxBrSoQJcaDCoT--Qf3-13">
          <mxGeometry x="-0.1206" relative="1" as="geometry">
            <mxPoint as="offset" />
          </mxGeometry>
        </mxCell>
        <mxCell id="wNxBrSoQJcaDCoT--Qf3-15" value="" style="endArrow=classic;html=1;rounded=0;exitX=0.5;exitY=1;exitDx=0;exitDy=0;entryX=0.5;entryY=0;entryDx=0;entryDy=0;" edge="1" parent="1">
          <mxGeometry width="50" height="50" relative="1" as="geometry">
            <mxPoint x="219.67" y="590" as="sourcePoint" />
            <mxPoint x="219.67" y="660" as="targetPoint" />
          </mxGeometry>
        </mxCell>
        <mxCell id="wNxBrSoQJcaDCoT--Qf3-16" value="Pembayaran Berhasil" style="edgeLabel;html=1;align=center;verticalAlign=middle;resizable=0;points=[];" connectable="0" vertex="1" parent="wNxBrSoQJcaDCoT--Qf3-15">
          <mxGeometry x="-0.1206" relative="1" as="geometry">
            <mxPoint as="offset" />
          </mxGeometry>
        </mxCell>
        <mxCell id="wNxBrSoQJcaDCoT--Qf3-17" value="" style="endArrow=classic;html=1;rounded=0;exitX=0.5;exitY=1;exitDx=0;exitDy=0;" edge="1" parent="1" source="wNxBrSoQJcaDCoT--Qf3-6">
          <mxGeometry width="50" height="50" relative="1" as="geometry">
            <mxPoint x="220" y="730" as="sourcePoint" />
            <mxPoint x="220" y="740" as="targetPoint" />
          </mxGeometry>
        </mxCell>
        <mxCell id="wNxBrSoQJcaDCoT--Qf3-18" value="" style="ellipse;whiteSpace=wrap;html=1;aspect=fixed;" vertex="1" parent="1">
          <mxGeometry x="210" y="740" width="20" height="20" as="geometry" />
        </mxCell>
        <mxCell id="wNxBrSoQJcaDCoT--Qf3-19" value="" style="ellipse;whiteSpace=wrap;html=1;aspect=fixed;fillColor=#000000;" vertex="1" parent="1">
          <mxGeometry x="215" y="745" width="10" height="10" as="geometry" />
        </mxCell>
        <mxCell id="wNxBrSoQJcaDCoT--Qf3-20" value="" style="ellipse;whiteSpace=wrap;html=1;aspect=fixed;fillColor=#000000;" vertex="1" parent="1">
          <mxGeometry x="215" y="100" width="10" height="10" as="geometry" />
        </mxCell>
        <mxCell id="wNxBrSoQJcaDCoT--Qf3-21" value="" style="endArrow=classic;html=1;rounded=0;entryX=0.5;entryY=0;entryDx=0;entryDy=0;exitX=0.5;exitY=1;exitDx=0;exitDy=0;" edge="1" parent="1" source="wNxBrSoQJcaDCoT--Qf3-20" target="wNxBrSoQJcaDCoT--Qf3-1">
          <mxGeometry width="50" height="50" relative="1" as="geometry">
            <mxPoint x="190" y="250" as="sourcePoint" />
            <mxPoint x="240" y="200" as="targetPoint" />
          </mxGeometry>
        </mxCell>
      </root>
    </mxGraphModel>
  </diagram>
</mxfile>
